<?xml version="1.0" standalone="no"?>
<!DOCTYPE svg PUBLIC "-//W3C//DTD SVG 20010904//EN"
 "http://www.w3.org/TR/2001/REC-SVG-20010904/DTD/svg10.dtd">
<svg version="1.0" xmlns="http://www.w3.org/2000/svg"
 width="700.000000pt" height="700.000000pt" viewBox="0 0 700.000000 700.000000"
 preserveAspectRatio="xMidYMid meet">
<metadata>
Created by potrace 1.14, written by Peter Selinger 2001-2017
</metadata>
<g transform="translate(0.000000,700.000000) scale(0.100000,-0.100000)"
fill="#000000" stroke="none">
<path d="M1455 5455 c-54 -19 -120 -91 -135 -146 -16 -57 -6 -122 26 -176 30
-52 68 -78 144 -99 298 -82 490 -168 611 -274 l44 -39 -92 -93 c-94 -95 -126
-147 -139 -225 -8 -50 18 -145 51 -189 l24 -31 -120 -126 -119 -126 2 -1038 3
-1039 37 -75 c46 -93 122 -168 215 -212 l68 -32 1640 0 1640 0 55 22 c111 46
207 142 253 253 l22 55 0 1390 0 1390 -36 75 c-110 230 -479 599 -709 709
l-75 36 -795 3 -795 2 -116 -120 -117 -121 -48 31 c-85 52 -191 57 -276 14
-18 -9 -83 -66 -145 -126 l-111 -110 -69 55 c-190 152 -423 266 -701 343 -137
37 -176 40 -237 19z m3392 -484 c92 -69 290 -269 356 -360 l47 -63 0 -252 0
-251 -286 285 c-157 157 -376 378 -486 493 l-200 207 245 0 246 0 78 -59z"/>
</g>
</svg>
