<?xml version="1.0" standalone="no"?>
<!DOCTYPE svg PUBLIC "-//W3C//DTD SVG 20010904//EN"
 "http://www.w3.org/TR/2001/REC-SVG-20010904/DTD/svg10.dtd">
<svg version="1.0" xmlns="http://www.w3.org/2000/svg"
 width="512.000000pt" height="512.000000pt" viewBox="0 0 512.000000 512.000000"
 preserveAspectRatio="xMidYMid meet">
<metadata>
Created by potrace 1.14, written by Peter Selinger 2001-2017
</metadata>
<g transform="translate(0.000000,512.000000) scale(0.100000,-0.100000)"
fill="#000000" stroke="none">
<path d="M2375 5114 c-538 -55 -959 -215 -1365 -517 -123 -93 -395 -365 -489
-490 -263 -352 -425 -738 -493 -1172 -31 -201 -31 -549 0 -750 68 -433 234
-826 495 -1174 154 -204 401 -435 629 -588 126 -84 382 -213 529 -267 437
-160 949 -198 1402 -105 763 157 1428 673 1772 1374 124 254 195 480 237 756
28 192 31 544 5 724 -65 442 -234 850 -499 1202 -89 118 -282 320 -399 418
-359 300 -795 496 -1262 566 -126 19 -465 33 -562 23z m-386 -864 c252 -26
474 -136 644 -320 37 -40 88 -106 113 -146 25 -41 47 -74 48 -74 2 0 38 10 82
21 113 31 308 31 419 2 165 -45 289 -118 401 -235 122 -129 196 -266 231 -433
18 -85 12 -303 -10 -382 l-15 -52 52 -17 c192 -63 345 -193 432 -369 53 -108
74 -197 74 -326 0 -196 -68 -357 -210 -499 -94 -95 -188 -151 -320 -192 l-75
-23 -1240 -3 c-853 -2 -1262 1 -1310 8 -165 26 -281 86 -405 210 -135 135
-196 271 -207 456 -13 223 58 406 218 564 36 36 93 81 127 100 102 57 99 46
41 125 -67 92 -125 215 -157 334 -22 85 -26 115 -25 256 0 177 13 244 74 390
135 325 461 567 814 604 44 5 85 9 91 10 7 0 57 -4 113 -9z"/>
</g>
</svg>
